<?xml version="1.0" encoding="utf-8"?>
<!-- Generator: Adobe Illustrator 15.0.2, SVG Export Plug-In . SVG Version: 6.00 Build 0)  -->
<!DOCTYPE svg PUBLIC "-//W3C//DTD SVG 1.1//EN" "http://www.w3.org/Graphics/SVG/1.1/DTD/svg11.dtd">
<svg version="1.1" id="Layer_1" xmlns="http://www.w3.org/2000/svg" xmlns:xlink="http://www.w3.org/1999/xlink" x="0px" y="0px"
	 width="24px" height="24px" viewBox="0 0 24 24" enable-background="new 0 0 24 24" xml:space="preserve">
<g id="Captions">
</g>
<g>
	<path d="M10.736,6.955c0.361,0,0.713-0.145,0.966-0.4c0.254-0.25,0.397-0.604,0.397-0.963s-0.144-0.709-0.397-0.966
		c-0.253-0.253-0.604-0.397-0.966-0.397c-0.359,0-0.711,0.145-0.965,0.397C9.518,4.882,9.373,5.234,9.373,5.591
		c0,0.36,0.145,0.709,0.398,0.963C10.025,6.81,10.377,6.955,10.736,6.955z"/>
	<path d="M8.182,10.636h5.108c0.003,0,0.005,0,0.007,0c0.753,0,1.363-0.609,1.363-1.363c0-0.537-0.311-1-0.76-1.224
		c-0.375-0.21-1.584-0.812-3.164-0.812c-1.807,0-3.129,0.785-3.273,0.875c-0.518,0.32-0.761,0.945-0.594,1.533
		C7.036,10.232,7.57,10.636,8.182,10.636z"/>
	<path d="M21.654,4.916c-0.008-0.041-0.023-0.078-0.035-0.117c-0.014-0.046-0.023-0.094-0.043-0.138
		c-0.02-0.046-0.045-0.088-0.068-0.131c-0.02-0.034-0.035-0.07-0.057-0.104c-0.051-0.074-0.107-0.146-0.17-0.209L17.465,0.4
		c-0.064-0.063-0.134-0.12-0.209-0.17c-0.033-0.022-0.07-0.039-0.105-0.057c-0.043-0.023-0.084-0.05-0.129-0.068
		s-0.09-0.029-0.135-0.043c-0.041-0.012-0.078-0.026-0.119-0.035c-0.086-0.017-0.17-0.024-0.254-0.025C16.508,0.001,16.504,0,16.5,0
		H3.682c-0.754,0-1.363,0.61-1.363,1.364v21.27C2.318,23.391,2.928,24,3.682,24h16.637c0.752,0,1.363-0.609,1.363-1.365V5.181
		C21.682,5.092,21.672,5.002,21.654,4.916z M18.954,21.273H5.045V2.728h10.09v2.455c0,0.752,0.611,1.363,1.365,1.363h2.454V21.273z"
		/>
	<path d="M8.045,12.273c-0.753,0-1.363,0.61-1.363,1.364S7.292,15,8.045,15h7.909c0.754,0,1.364-0.609,1.364-1.363
		s-0.61-1.364-1.364-1.364H8.045z"/>
	<path d="M15.954,16.637H8.045c-0.753,0-1.363,0.609-1.363,1.363s0.61,1.363,1.363,1.363h7.909c0.754,0,1.364-0.609,1.364-1.363
		S16.708,16.637,15.954,16.637z"/>
</g>
</svg>
